<svg width="108" height="32" viewBox="0 0 108 32" fill="none" xmlns="http://www.w3.org/2000/svg">
<path d="M13.2 2.68001H18.36L30.68 31H23.64L21.2 25H10.2L7.83996 31H0.959961L13.2 2.68001ZM15.6 10.92L12.16 19.72H19.08L15.6 10.92Z" fill="white"/>
<path d="M32.8484 0.76001H38.8484V31H32.8484V0.76001Z" fill="white"/>
<path d="M43.239 11.56H49.239V31H43.239V11.56ZM42.759 5.44001C42.759 4.48001 43.0924 3.66668 43.759 3.00001C44.4524 2.30668 45.279 1.96001 46.239 1.96001C47.199 1.96001 48.0124 2.30668 48.679 3.00001C49.3724 3.66668 49.719 4.48001 49.719 5.44001C49.719 6.40001 49.3724 7.22668 48.679 7.92001C48.0124 8.58668 47.199 8.92001 46.239 8.92001C45.279 8.92001 44.4524 8.58668 43.759 7.92001C43.0924 7.22668 42.759 6.40001 42.759 5.44001Z" fill="white"/>
<path d="M51.5097 11.56H57.9897L62.9096 24.76H62.9897L67.5497 11.56H73.5897L65.9097 31H59.5496L51.5097 11.56Z" fill="white"/>
<path d="M75.8562 11.56H81.8562V31H75.8562V11.56ZM75.3762 5.44001C75.3762 4.48001 75.7095 3.66668 76.3762 3.00001C77.0695 2.30668 77.8962 1.96001 78.8562 1.96001C79.8162 1.96001 80.6295 2.30668 81.2962 3.00001C81.9895 3.66668 82.3362 4.48001 82.3362 5.44001C82.3362 6.40001 81.9895 7.22668 81.2962 7.92001C80.6295 8.58668 79.8162 8.92001 78.8562 8.92001C77.8962 8.92001 77.0695 8.58668 76.3762 7.92001C75.7095 7.22668 75.3762 6.40001 75.3762 5.44001Z" fill="white"/>
<path d="M85.4468 21.28C85.4468 19.7333 85.7268 18.3333 86.2868 17.08C86.8468 15.8267 87.6068 14.76 88.5668 13.88C89.5535 12.9733 90.7002 12.28 92.0068 11.8C93.3402 11.32 94.7535 11.08 96.2468 11.08C97.7402 11.08 99.1402 11.32 100.447 11.8C101.78 12.28 102.927 12.9733 103.887 13.88C104.874 14.76 105.647 15.8267 106.207 17.08C106.767 18.3333 107.047 19.7333 107.047 21.28C107.047 22.8267 106.767 24.2267 106.207 25.48C105.647 26.7333 104.874 27.8133 103.887 28.72C102.927 29.6 101.78 30.28 100.447 30.76C99.1402 31.24 97.7402 31.48 96.2468 31.48C94.7535 31.48 93.3402 31.24 92.0068 30.76C90.7002 30.28 89.5535 29.6 88.5668 28.72C87.6068 27.8133 86.8468 26.7333 86.2868 25.48C85.7268 24.2267 85.4468 22.8267 85.4468 21.28ZM91.4468 21.28C91.4468 22.7467 91.8602 23.9333 92.6868 24.84C93.5402 25.7467 94.7268 26.2 96.2468 26.2C97.7668 26.2 98.9402 25.7467 99.7668 24.84C100.62 23.9333 101.047 22.7467 101.047 21.28C101.047 19.8133 100.62 18.6267 99.7668 17.72C98.9402 16.8133 97.7668 16.36 96.2468 16.36C94.7268 16.36 93.5402 16.8133 92.6868 17.72C91.8602 18.6267 91.4468 19.8133 91.4468 21.28Z" fill="white"/>
</svg>
